<?xml version="1.0" encoding="UTF-8"?>
<!DOCTYPE svg
  PUBLIC '-//W3C//DTD SVG 1.1//EN'
  'http://www.w3.org/Graphics/SVG/1.1/DTD/svg11.dtd'>
<svg version="1.1" xmlns="http://www.w3.org/2000/svg" width="31.000mm" height="10.000mm">
    <!--Autogenerated with python-barcode 0.13.1-->
    <g id="barcode_group">
        <rect width="100%" height="100%" style="fill:white"/>
        <rect x="2.540mm" y="1.000mm" width="0.400mm" height="5.000mm" style="fill:black;"/>
        <rect x="2.940mm" y="1.000mm" width="0.200mm" height="5.000mm" style="fill:white;"/>
        <rect x="3.140mm" y="1.000mm" width="0.200mm" height="5.000mm" style="fill:black;"/>
        <rect x="3.340mm" y="1.000mm" width="0.400mm" height="5.000mm" style="fill:white;"/>
        <rect x="3.740mm" y="1.000mm" width="0.200mm" height="5.000mm" style="fill:black;"/>
        <rect x="3.940mm" y="1.000mm" width="0.800mm" height="5.000mm" style="fill:white;"/>
        <rect x="4.740mm" y="1.000mm" width="0.200mm" height="5.000mm" style="fill:black;"/>
        <rect x="4.940mm" y="1.000mm" width="0.200mm" height="5.000mm" style="fill:white;"/>
        <rect x="5.140mm" y="1.000mm" width="0.400mm" height="5.000mm" style="fill:black;"/>
        <rect x="5.540mm" y="1.000mm" width="0.600mm" height="5.000mm" style="fill:white;"/>
        <rect x="6.140mm" y="1.000mm" width="0.600mm" height="5.000mm" style="fill:black;"/>
        <rect x="6.740mm" y="1.000mm" width="0.200mm" height="5.000mm" style="fill:white;"/>
        <rect x="6.940mm" y="1.000mm" width="0.200mm" height="5.000mm" style="fill:black;"/>
        <rect x="7.140mm" y="1.000mm" width="0.600mm" height="5.000mm" style="fill:white;"/>
        <rect x="7.740mm" y="1.000mm" width="0.800mm" height="5.000mm" style="fill:black;"/>
        <rect x="8.540mm" y="1.000mm" width="0.200mm" height="5.000mm" style="fill:white;"/>
        <rect x="8.740mm" y="1.000mm" width="0.200mm" height="5.000mm" style="fill:black;"/>
        <rect x="8.940mm" y="1.000mm" width="0.200mm" height="5.000mm" style="fill:white;"/>
        <rect x="9.140mm" y="1.000mm" width="0.200mm" height="5.000mm" style="fill:black;"/>
        <rect x="9.340mm" y="1.000mm" width="0.400mm" height="5.000mm" style="fill:white;"/>
        <rect x="9.740mm" y="1.000mm" width="0.800mm" height="5.000mm" style="fill:black;"/>
        <rect x="10.540mm" y="1.000mm" width="0.200mm" height="5.000mm" style="fill:white;"/>
        <rect x="10.740mm" y="1.000mm" width="0.200mm" height="5.000mm" style="fill:black;"/>
        <rect x="10.940mm" y="1.000mm" width="0.400mm" height="5.000mm" style="fill:white;"/>
        <rect x="11.340mm" y="1.000mm" width="0.200mm" height="5.000mm" style="fill:black;"/>
        <rect x="11.540mm" y="1.000mm" width="0.400mm" height="5.000mm" style="fill:white;"/>
        <rect x="11.940mm" y="1.000mm" width="0.800mm" height="5.000mm" style="fill:black;"/>
        <rect x="12.740mm" y="1.000mm" width="0.400mm" height="5.000mm" style="fill:white;"/>
        <rect x="13.140mm" y="1.000mm" width="0.200mm" height="5.000mm" style="fill:black;"/>
        <rect x="13.340mm" y="1.000mm" width="0.200mm" height="5.000mm" style="fill:white;"/>
        <rect x="13.540mm" y="1.000mm" width="0.200mm" height="5.000mm" style="fill:black;"/>
        <rect x="13.740mm" y="1.000mm" width="0.400mm" height="5.000mm" style="fill:white;"/>
        <rect x="14.140mm" y="1.000mm" width="0.400mm" height="5.000mm" style="fill:black;"/>
        <rect x="14.540mm" y="1.000mm" width="0.200mm" height="5.000mm" style="fill:white;"/>
        <rect x="14.740mm" y="1.000mm" width="0.600mm" height="5.000mm" style="fill:black;"/>
        <rect x="15.340mm" y="1.000mm" width="0.400mm" height="5.000mm" style="fill:white;"/>
        <rect x="15.740mm" y="1.000mm" width="0.200mm" height="5.000mm" style="fill:black;"/>
        <rect x="15.940mm" y="1.000mm" width="0.400mm" height="5.000mm" style="fill:white;"/>
        <rect x="16.340mm" y="1.000mm" width="0.600mm" height="5.000mm" style="fill:black;"/>
        <rect x="16.940mm" y="1.000mm" width="0.400mm" height="5.000mm" style="fill:white;"/>
        <rect x="17.340mm" y="1.000mm" width="0.400mm" height="5.000mm" style="fill:black;"/>
        <rect x="17.740mm" y="1.000mm" width="0.200mm" height="5.000mm" style="fill:white;"/>
        <rect x="17.940mm" y="1.000mm" width="0.200mm" height="5.000mm" style="fill:black;"/>
        <rect x="18.140mm" y="1.000mm" width="0.200mm" height="5.000mm" style="fill:white;"/>
        <rect x="18.340mm" y="1.000mm" width="0.600mm" height="5.000mm" style="fill:black;"/>
        <rect x="18.940mm" y="1.000mm" width="0.200mm" height="5.000mm" style="fill:white;"/>
        <rect x="19.140mm" y="1.000mm" width="0.800mm" height="5.000mm" style="fill:black;"/>
        <rect x="19.940mm" y="1.000mm" width="0.200mm" height="5.000mm" style="fill:white;"/>
        <rect x="20.140mm" y="1.000mm" width="0.600mm" height="5.000mm" style="fill:black;"/>
        <rect x="20.740mm" y="1.000mm" width="0.200mm" height="5.000mm" style="fill:white;"/>
        <rect x="20.940mm" y="1.000mm" width="0.400mm" height="5.000mm" style="fill:black;"/>
        <rect x="21.340mm" y="1.000mm" width="0.200mm" height="5.000mm" style="fill:white;"/>
        <rect x="21.540mm" y="1.000mm" width="0.600mm" height="5.000mm" style="fill:black;"/>
        <rect x="22.140mm" y="1.000mm" width="0.200mm" height="5.000mm" style="fill:white;"/>
        <rect x="22.340mm" y="1.000mm" width="0.200mm" height="5.000mm" style="fill:black;"/>
        <rect x="22.540mm" y="1.000mm" width="0.200mm" height="5.000mm" style="fill:white;"/>
        <rect x="22.740mm" y="1.000mm" width="0.600mm" height="5.000mm" style="fill:black;"/>
        <rect x="23.340mm" y="1.000mm" width="0.200mm" height="5.000mm" style="fill:white;"/>
        <rect x="23.540mm" y="1.000mm" width="0.400mm" height="5.000mm" style="fill:black;"/>
        <rect x="23.940mm" y="1.000mm" width="0.600mm" height="5.000mm" style="fill:white;"/>
        <rect x="24.540mm" y="1.000mm" width="0.200mm" height="5.000mm" style="fill:black;"/>
        <rect x="24.740mm" y="1.000mm" width="0.200mm" height="5.000mm" style="fill:white;"/>
        <rect x="24.940mm" y="1.000mm" width="0.200mm" height="5.000mm" style="fill:black;"/>
        <rect x="25.140mm" y="1.000mm" width="0.400mm" height="5.000mm" style="fill:white;"/>
        <rect x="25.540mm" y="1.000mm" width="0.800mm" height="5.000mm" style="fill:black;"/>
        <rect x="26.340mm" y="1.000mm" width="0.400mm" height="5.000mm" style="fill:white;"/>
        <rect x="26.740mm" y="1.000mm" width="0.400mm" height="5.000mm" style="fill:black;"/>
        <rect x="27.140mm" y="1.000mm" width="0.600mm" height="5.000mm" style="fill:white;"/>
        <rect x="27.740mm" y="1.000mm" width="0.600mm" height="5.000mm" style="fill:black;"/>
        <rect x="28.340mm" y="1.000mm" width="0.200mm" height="5.000mm" style="fill:white;"/>
        <rect x="28.540mm" y="1.000mm" width="0.200mm" height="5.000mm" style="fill:black;"/>
        <rect x="28.740mm" y="1.000mm" width="0.200mm" height="5.000mm" style="fill:white;"/>
        <rect x="28.940mm" y="1.000mm" width="0.400mm" height="5.000mm" style="fill:black;"/>
        <text x="15.940mm" y="7.000mm" style="fill:black;font-size:12pt;text-anchor:middle;">Kotu-12345</text>
    </g>
</svg>
